Coordinates
version=1
nRows=5
nColumns=46
inDegrees=yes

Units are S.I. units (second, meters, Newtons, ...)
Angles are in degrees.

endheader
time	pelvis_tilt	pelvis_list	pelvis_rotation	pelvis_tx	pelvis_ty	pelvis_tz	bb_angle	bb_tx	bb_ty	bb_tz	hip_flexion_r	hip_adduction_r	hip_rotation_r	knee_angle_r	knee_angle_r_beta	ankle_angle_r	subtalar_angle_r	mtp_angle_r	crank_angle_r	hip_flexion_l	hip_adduction_l	hip_rotation_l	knee_angle_l	knee_angle_l_beta	ankle_angle_l	subtalar_angle_l	mtp_angle_l	crank_angle_l	lumbar_extension	lumbar_bending	lumbar_rotation	arm_flex_r	arm_add_r	arm_rot_r	elbow_flex_r	pro_sup_r	wrist_flex_r	wrist_dev_r	arm_flex_l	arm_add_l	arm_rot_l	elbow_flex_l	pro_sup_l	wrist_flex_l	wrist_dev_l
      0.00000000	    -23.23202422	      3.59405066	      4.63583220	      0.10912473	      1.06271340	     -0.27049039	      0.00000000	      0.50000000	      0.00000000	      0.25000000	     47.65649195	    -10.74184938	     -3.07894065	     48.36651564	      0.84415495	     15.74271911	     -5.56348748	      0.00000000	      0.00000000	     98.27919561	      0.18163860	     -2.06463617	    103.52139004	      1.80678910	     22.78440107	     -9.13313302	      0.00000000	      0.00000000	    -46.89287574	     -3.05496271	     -6.38236513	     89.63422028	     -4.06317504	     34.08782797	     25.57311169	     26.30483874	      0.00000000	      0.00000000	     89.73984922	     -4.04462840	     39.76289838	     31.07237470	     26.19900684	      0.00000000	      0.00000000
      0.00500000	    -23.22819030	      3.59838756	      4.65255638	      0.10912736	      1.06274830	     -0.27052500	      0.00000000	      0.50000000	      0.00000000	      0.25000000	     47.65370910	    -10.75901458	     -3.08777856	     48.36692841	      0.84416215	     15.71421632	     -5.56631594	      0.00000000	      0.00000000	     98.27505298	      0.19317788	     -2.07628722	    103.52120258	      1.80678583	     22.80234103	     -9.10570382	      0.00000000	      0.00000000	    -46.89657463	     -3.07212491	     -6.34763607	     89.63473364	     -4.34605086	     35.15706647	     26.08556316	     23.45846218	      0.00000000	      0.00000000	     89.73936174	     -3.82867285	     39.56261274	     31.66664634	     22.12631822	      0.00000000	      0.00000000
      0.01000000	    -23.22951599	      3.61536285	      4.63777419	      0.10913084	      1.06273592	     -0.27049468	      0.00000000	      0.50000000	      0.00000000	      0.25000000	     47.67258282	    -10.75920344	     -3.05994514	     48.38236459	      0.84443156	     15.70794512	     -5.55878205	      0.00000000	      0.00000000	     98.27718795	      0.17056011	     -2.09426962	    103.53478029	      1.80702281	     22.78789512	     -9.09635381	      0.00000000	      0.00000000	    -46.89059453	     -3.09470557	     -6.37375272	     89.63441048	     -4.16728638	     34.48857194	     25.71666986	     25.41433736	      0.00000000	      0.00000000	     89.74215769	     -3.92511878	     39.77849782	     31.18864563	     24.71098682	      0.00000000	      0.00000000
      0.01500000	    -23.16815938	      3.59806604	      4.62617127	      0.10923134	      1.06293110	     -0.27034988	      0.00000000	      0.50000000	      0.00000000	      0.25000000	     47.58250671	    -10.71820045	     -3.08378789	     48.35333850	      0.84392496	     15.67010338	     -5.62006865	      0.00000000	      0.00000000	     98.20459815	      0.12278522	     -2.05363658	    103.49601954	      1.80634630	     22.74714257	     -9.03294867	      0.00000000	      0.00000000	    -46.96808760	     -3.06939072	     -6.43639466	     89.63255976	     -3.60609105	     32.06873948	     25.07223799	     28.73323158	      0.00000000	      0.00000000	     89.74591917	     -3.86946435	     36.55782112	     30.96132237	     28.09753104	      0.00000000	      0.00000000
      0.02000000	    -28.88295910	      5.18375540	      4.19954766	      0.10472649	      1.05219427	     -0.26989991	      0.00000000	      0.50000000	      0.00000000	      0.25000000	     55.36119647	    -11.33687866	      0.01757335	     50.04468502	      0.87344453	     15.28212107	     -5.94646383	      0.00000000	      0.00000000	    104.19608286	     -0.39328965	     -3.62689849	    102.83044103	      1.79472977	     21.56656447	    -10.37034692	      0.00000000	      0.00000000	    -89.87182846	     14.93724878	     82.65432592	     57.69199600	     89.89986610	     39.35955993	     91.78562879	     18.25739811	      0.00000000	      0.00000000	     89.74245549	     12.39199902	     10.92801111	     73.88950024	     22.34744819	      0.00000000	      0.00000000
